<svg id="Layer_1" data-name="Layer 1" xmlns="http://www.w3.org/2000/svg" viewBox="0 0 256 256"><defs><style>.cls-1{fill:#fff;}</style></defs><path class="cls-1" d="M234.79,113.82l-7.47-47.65-5.09-32.48-.5-3.23A26.56,26.56,0,0,0,178.8,13.9l-.47.38a32.53,32.53,0,0,0-7,7.9C163.22,35,151.66,51.42,141.23,62.9c-4.43-.39-8.86-.58-13.23-.58s-8.79.19-13.23.58C104.34,51.42,92.78,35,84.71,22.18a32.53,32.53,0,0,0-7-7.9l-.47-.38A26.56,26.56,0,0,0,34.27,30.46l-.5,3.23L28.68,66.17l-7.47,47.65a62.54,62.54,0,0,0-9,32.14,60.23,60.23,0,0,0,.51,7.47c.07.59.15,1.19.25,1.79a61.85,61.85,0,0,0,1.53,7.21l.09.32a63.5,63.5,0,0,0,2.37,6.69c.19.48.39.95.6,1.42a69.94,69.94,0,0,0,7.42,12.88l.82,1.13c1.6,2.13,3.16,4,4.78,5.81l.36.38c1.47,1.59,3.06,3.18,4.88,4.88l1.27,1.17c1.85,1.65,3.59,3.1,5.31,4.43a6.26,6.26,0,0,0,.57.45c.23.18.47.36.72.52a111.38,111.38,0,0,0,15.82,9.86l20.46,20.46a16.54,16.54,0,0,0,23.4,0l1.32-1.32,11.65,11.64a16.54,16.54,0,0,0,23.4,0l11.65-11.64,1.32,1.32a16.54,16.54,0,0,0,23.4,0l20.46-20.46a112.06,112.06,0,0,0,15.83-9.86c.24-.16.48-.34.72-.52l.53-.42c1.72-1.33,3.47-2.79,5.32-4.45.43-.38.83-.75,1.23-1.13,1.89-1.76,3.5-3.36,5-4.94.11-.13.24-.26.33-.36,1.63-1.79,3.19-3.69,4.79-5.82l.76-1a70.49,70.49,0,0,0,7.48-13c.21-.47.4-.94.6-1.41a63.74,63.74,0,0,0,2.37-6.71c.05-.18.11-.36.15-.53a62.39,62.39,0,0,0,1.48-7c.09-.58.17-1.18.24-1.77a60.1,60.1,0,0,0,.51-7.47A62.54,62.54,0,0,0,234.79,113.82Z"/><path d="M211,68.73l-5.08-32.48h0L205.38,33a10,10,0,0,0-9.94-8.48,9.9,9.9,0,0,0-6.25,2.23l-.47.37A15.8,15.8,0,0,0,185.29,31c-4.85,7.68-21.87,33.91-37.86,49.26a134.58,134.58,0,0,0-38.86,0c-16-15.35-33-41.58-37.86-49.26a15.8,15.8,0,0,0-3.43-3.86l-.47-.37a9.9,9.9,0,0,0-6.25-2.23A10,10,0,0,0,50.62,33l-.51,3.22h0L45,68.73l-8,51A47.25,47.25,0,0,0,28.72,146a44.32,44.32,0,0,0,.38,5.42c0,.44.11.86.18,1.29A43.06,43.06,0,0,0,30.39,158a.14.14,0,0,0,0,.06,46,46,0,0,0,1.81,5.13c.14.35.29.71.45,1.06a54,54,0,0,0,5.68,9.86l.65.88c1.18,1.57,2.42,3.11,3.78,4.61l.17.18c1.29,1.4,2.66,2.76,4.09,4.09l1.06,1c1.48,1.32,3,2.61,4.63,3.86l.23.19h0a96.84,96.84,0,0,0,16.3,9.95l22.35,22.35,9.66-9.66a4.77,4.77,0,0,1,6.73,0l20,20,20-20a4.77,4.77,0,0,1,6.73,0l9.66,9.66,22.35-22.35a96.84,96.84,0,0,0,16.3-9.95h0l.23-.19c1.62-1.25,3.15-2.54,4.63-3.86l1.06-1c1.43-1.33,2.8-2.69,4.09-4.09l.17-.18c1.36-1.5,2.6-3,3.78-4.61l.65-.88a54,54,0,0,0,5.68-9.86c.16-.35.31-.71.45-1.06a46,46,0,0,0,1.81-5.13.14.14,0,0,0,0-.06,43.06,43.06,0,0,0,1.11-5.28c.07-.43.13-.85.18-1.29a44.32,44.32,0,0,0,.38-5.42A47.25,47.25,0,0,0,219,119.72Zm-125.91,103c-9.64,0-19.2-3.81-25.57-10.18a29.39,29.39,0,0,1,0-41.55c4.5-4.5,9.32-6.78,14.33-6.78,6.48,0,13.67,3.76,20.79,10.88,9.32,9.32,21.88,28.31,9.83,40.36C99.76,169.11,92.87,171.69,85.06,171.69Zm85.88,0c-7.81,0-14.7-2.58-19.38-7.27-12.05-12,.51-31,9.83-40.36,7.12-7.12,14.31-10.88,20.79-10.88,5,0,9.83,2.28,14.33,6.78a29.39,29.39,0,0,1,0,41.55C190.14,167.88,180.58,171.69,170.94,171.69Z"/></svg>